<svg xmlns="http://www.w3.org/2000/svg" viewBox="0 0 1367 769"><defs><style>.cls-1{fill:#004953;}.cls-2{fill:#0bb796;}</style></defs><title>Asset 1</title><g id="Layer_2" data-name="Layer 2"><g id="Layer_1-2" data-name="Layer 1"><g id="Layer_1-2-2" data-name="Layer 1-2"><path class="cls-1" d="M0,0H1367V769H831.43c5.78-244.79-3.86-564.5-360.64-624.71H0Z"/></g><path class="cls-2" d="M1249.55,616.78h0a34.73,34.73,0,0,0-27.85,16.36h0c-15.17,24.43-51.77,20.86-61.93-6h0a34.73,34.73,0,0,0-24.16-21.43h0c-27.92-6.88-35.84-42.79-13.39-60.77h0a34.68,34.68,0,0,0,12.91-29.59h0c-2.08-28.69,29.63-47.31,53.66-31.52h0a34.7,34.7,0,0,0,32.14,3.14h0c26.64-10.85,54.15,13.56,46.56,41.29h0a34.7,34.7,0,0,0,6.94,31.54h0C1293,581.73,1278.27,615.43,1249.55,616.78Z"/></g></g></svg>