<?xml version="1.0" encoding="utf-8"?>
<!-- Generator: Adobe Illustrator 23.0.6, SVG Export Plug-In . SVG Version: 6.00 Build 0)  -->
<svg version="1.1" id="Layer_1" focusable="false" xmlns="http://www.w3.org/2000/svg" xmlns:xlink="http://www.w3.org/1999/xlink"
	 x="0px" y="0px" viewBox="0 0 448 512" style="enable-background:new 0 0 448 512;" xml:space="preserve">
<style type="text/css">
	.st0{fill:none;stroke:#FFFFFF;stroke-width:26.0159;stroke-miterlimit:10;}
</style>
<path class="st0" d="M19,450.1c0,24.2,19.7,43.9,43.9,43.9h321.9c24.2,0,43.9-19.7,43.9-43.9V201.3H19V450.1z M311.7,270.8
	c0-6,4.9-11,11-11h36.6c6,0,11,4.9,11,11v36.6c0,6-4.9,11-11,11h-36.6c-6,0-11-4.9-11-11V270.8z M311.7,387.9c0-6,4.9-11,11-11h36.6
	c6,0,11,4.9,11,11v36.6c0,6-4.9,11-11,11h-36.6c-6,0-11-4.9-11-11V387.9z M194.6,270.8c0-6,4.9-11,11-11h36.6c6,0,11,4.9,11,11v36.6
	c0,6-4.9,11-11,11h-36.6c-6,0-11-4.9-11-11V270.8z M194.6,387.9c0-6,4.9-11,11-11h36.6c6,0,11,4.9,11,11v36.6c0,6-4.9,11-11,11
	h-36.6c-6,0-11-4.9-11-11V387.9z M77.5,270.8c0-6,4.9-11,11-11h36.6c6,0,11,4.9,11,11v36.6c0,6-4.9,11-11,11H88.5c-6,0-11-4.9-11-11
	V270.8z M77.5,387.9c0-6,4.9-11,11-11h36.6c6,0,11,4.9,11,11v36.6c0,6-4.9,11-11,11H88.5c-6,0-11-4.9-11-11V387.9z M384.8,84.3
	h-43.9V40.3c0-8-6.6-14.6-14.6-14.6H297c-8,0-14.6,6.6-14.6,14.6v43.9H165.3V40.3c0-8-6.6-14.6-14.6-14.6h-29.3
	c-8,0-14.6,6.6-14.6,14.6v43.9H62.9c-24.2,0-43.9,19.7-43.9,43.9v43.9h409.8v-43.9C428.8,103.9,409.1,84.3,384.8,84.3z"/>
</svg>
